<svg xmlns="http://www.w3.org/2000/svg" xmlns:xlink="http://www.w3.org/1999/xlink" version="1.1" x="0px" y="0px" viewBox="0 0 100 125" style="enable-background:new 0 0 100 100;" xml:space="preserve"><style type="text/css">
</style><g><g><path class="st0" d="M50,64.6L50,64.6c3.83,0,7.3-1.56,9.82-4.08c2.52-2.52,4.08-5.99,4.08-9.82V16.4c0-3.83-1.56-7.3-4.08-9.82    C57.3,4.06,53.83,2.5,50,2.5h0c-3.83,0-7.3,1.56-9.82,4.08c-2.52,2.52-4.08,5.99-4.08,9.82v34.3c0,3.83,1.56,7.3,4.08,9.82    C42.7,63.03,46.17,64.6,50,64.6z"/><path class="st0" d="M66.49,88.17H54.66v-7.74c6.24-1,11.82-3.96,16.09-8.23c5.31-5.31,8.6-12.65,8.6-20.75h0V36.46    c0-2.58-2.09-4.66-4.66-4.66c-2.58,0-4.66,2.09-4.66,4.66v14.99l0,0.05c-0.01,5.51-2.25,10.5-5.86,14.11    c-3.62,3.62-8.63,5.86-14.16,5.86c-5.53,0-10.54-2.24-14.16-5.86c-3.62-3.62-5.86-8.63-5.86-14.16V36.46    c0-2.58-2.09-4.66-4.66-4.66c-2.58,0-4.66,2.09-4.66,4.66v14.99c0,8.1,3.29,15.44,8.6,20.75c4.27,4.27,9.85,7.23,16.09,8.23v7.74    H33.51c-2.58,0-4.66,2.09-4.66,4.66c0,2.58,2.09,4.66,4.66,4.66h32.97c2.58,0,4.66-2.09,4.66-4.66    C71.15,90.26,69.06,88.17,66.49,88.17z"/></g></g></svg>